<!--bf:dsl=sha256:6a3dd626c04e5c5956e92a679a445d17768fcafef377e08780ad99281ed0fea1-->
<svg style="" font-family="Alibaba PuHuiTi" xmlns="http://www.w3.org/2000/svg" viewBox="-3.00 -3.00 346.00 381.00"><defs/><g id="infographic-container"><g transform="translate(28.5, 0)"><g/></g><g transform="translate(0, 35)"><path d="M 0 170 L 340 170" stroke="#D9D9D9" stroke-width="1" stroke-dasharray="4,2" fill="none"/><g transform="translate(340, 170)"><path d="M 0 0 L -5 -2.5" stroke="#D9D9D9" stroke-width="1" fill="none"/><path d="M 0 0 L -5 2.5" stroke="#D9D9D9" stroke-width="1" fill="none"/></g><g transform="translate(0, 170)"><path d="M 0 0 L 5 -2.5" stroke="#D9D9D9" stroke-width="1" fill="none"/><path d="M 0 0 L 5 2.5" stroke="#D9D9D9" stroke-width="1" fill="none"/></g><path d="M 170 0 L 170 340" stroke="#D9D9D9" stroke-width="1" stroke-dasharray="4,2" fill="none"/><g transform="translate(170, 0)"><path d="M 0 0 L -2.5 5" stroke="#D9D9D9" stroke-width="1" fill="none"/><path d="M 0 0 L 2.5 5" stroke="#D9D9D9" stroke-width="1" fill="none"/></g><g transform="translate(170, 340)"><path d="M 0 0 L -2.5 -5" stroke="#D9D9D9" stroke-width="1" fill="none"/><path d="M 0 0 L 2.5 -5" stroke="#D9D9D9" stroke-width="1" fill="none"/></g><g><g transform="translate(10, 10)"><path d="&#10;  M 16 0&#10;  L 134 0&#10;  Q 150 0 150 16&#10;  L 150 150&#10;  L 16 150&#10;  Q 0 150 0 134&#10;  L 0 16&#10;  Q 0 0 16 0&#10;  Z&#10;" x="0" y="0" width="150" height="150" fill="#1a5fb4" transform="translate(0, 0)"/><g transform="translate(20, 58)"/><g transform="translate(20, 88)"/></g><g transform="translate(180, 10)"><path d="&#10;  M 16 0&#10;  L 134 0&#10;  Q 150 0 150 16&#10;  L 150 134&#10;  Q 150 150 134 150&#10;  L 0 150&#10;  L 0 16&#10;  Q 0 0 16 0&#10;  Z&#10;" x="0" y="0" width="150" height="150" fill="#20242a" transform="translate(0, 0)"/><g transform="translate(20, 58)"/><g transform="translate(20, 88)"/></g><g transform="translate(10, 180)"><path d="&#10;  M 0 0&#10;  L 150 0&#10;  L 150 134&#10;  Q 150 150 134 150&#10;  L 16 150&#10;  Q 0 150 0 134&#10;  L 0 16&#10;  Q 0 0 16 0&#10;  Z&#10;" x="0" y="0" width="150" height="150" fill="#6b7480" transform="translate(0, 0)"/><g transform="translate(20, 58)"/><g transform="translate(20, 88)"/></g><g transform="translate(180, 180)"><path d="&#10;  M 16 0&#10;  L 134 0&#10;  Q 150 0 150 16&#10;  L 150 134&#10;  Q 150 150 134 150&#10;  L 16 150&#10;  Q 0 150 0 134&#10;  L 0 0&#10;  L 16 0&#10;  Z&#10;" x="0" y="0" width="150" height="150" fill="#1a5fb4" transform="translate(0, 0)"/><g transform="translate(20, 58)"/><g transform="translate(20, 88)"/></g></g></g></g><g class="bf-textlayer"><text x="111.72" y="11" font-family="Pretendard" font-size="11.37" font-weight="400" fill="rgb(38, 38, 38)">어느 형식이 어디에 강한가</text><text x="30" y="112" font-family="Pretendard" font-size="9.88" font-weight="700" fill="rgb(255, 255, 255)">슬라이드 강점</text><text x="30" y="141" font-family="Pretendard" font-size="8.9" font-weight="400" fill="rgb(255, 255, 255)">항목 나열과 표</text><text x="256.52" y="112" font-family="Pretendard" font-size="9.88" font-weight="700" fill="rgb(255, 255, 255)">슬라이드 약점</text><text x="277.08" y="141" font-family="Pretendard" font-size="8.9" font-weight="400" fill="rgb(255, 255, 255)">변화 묘사</text><text x="30" y="282" font-family="Pretendard" font-size="9.88" font-weight="700" fill="rgb(255, 255, 255)">스크롤텔링 강점</text><text x="30" y="311" font-family="Pretendard" font-size="8.9" font-weight="400" fill="rgb(255, 255, 255)">과정과 대비</text><text x="247.97" y="282" font-family="Pretendard" font-size="9.88" font-weight="700" fill="rgb(255, 255, 255)">스크롤텔링 약점</text><text x="261.75" y="311" font-family="Pretendard" font-size="8.9" font-weight="400" fill="rgb(255, 255, 255)">되짚기와 배포</text></g></svg>