<!--bf:dsl=sha256:eaacf4da531b5dfb4499fabd3500504c024542819a69761ce4d05e7b9b377d50-->
<svg style="" font-family="Alibaba PuHuiTi" xmlns="http://www.w3.org/2000/svg" viewBox="-5.18 -3.18 658.37 227.37"><defs/><defs><radialGradient id="#1a5fb4-badge" cx="50%" cy="50%" r="50%"><stop offset="0%" stop-color="#1a5fb4"/><stop offset="100%" stop-color="#0d305b"/></radialGradient><radialGradient id="#20242a-badge" cx="50%" cy="50%" r="50%"><stop offset="0%" stop-color="#20242a"/><stop offset="100%" stop-color="#000000"/></radialGradient><radialGradient id="#6b7480-badge" cx="50%" cy="50%" r="50%"><stop offset="0%" stop-color="#6b7480"/><stop offset="100%" stop-color="#3d4248"/></radialGradient></defs><g id="infographic-container"><g transform="translate(170.5, 0)"><g/></g><g transform="translate(0, 35)"><g><g><rect x="0" y="0" width="200" height="80" fill="#1a5fb41a" rx="8" ry="8"/><g transform="translate(8, 33)"><g/></g></g><g transform="translate(224, 0)"><rect x="0" y="0" width="200" height="80" fill="#20242a1a" rx="8" ry="8"/><g transform="translate(8, 33)"><g/></g></g><g transform="translate(448, 0)"><rect x="0" y="0" width="200" height="80" fill="#6b74801a" rx="8" ry="8"/><g transform="translate(8, 33)"><g/></g></g><g transform="translate(0, 104)"><rect x="0" y="0" width="200" height="80" fill="#1a5fb41a" rx="8" ry="8"/><g transform="translate(8, 33)"><g/></g></g><g transform="translate(224, 104)"><rect x="0" y="0" width="200" height="80" fill="#20242a1a" rx="8" ry="8"/><g transform="translate(8, 33)"><g/></g></g><g transform="translate(448, 104)"><rect x="0" y="0" width="200" height="80" fill="#6b74801a" rx="8" ry="8"/><g transform="translate(8, 33)"><g/></g></g></g></g></g><g class="bf-textlayer"><text x="203.72" y="22" font-family="Pretendard" font-size="21.63" font-weight="400" fill="rgb(38, 38, 38)">리허설에서 확인할 여섯 가지</text><text x="65.33" y="83.84" font-family="Pretendard" font-size="18.81" font-weight="700" fill="rgb(38, 38, 38)">전체 주행</text><text x="273.09" y="83.84" font-family="Pretendard" font-size="18.81" font-weight="700" fill="rgb(38, 38, 38)">프로젝터 대비</text><text x="513.33" y="83.84" font-family="Pretendard" font-size="18.81" font-weight="700" fill="rgb(38, 38, 38)">전체 화면</text><text x="73.45" y="187.84" font-family="Pretendard" font-size="18.81" font-weight="700" fill="rgb(38, 38, 38)">키 착지</text><text x="281.22" y="187.84" font-family="Pretendard" font-size="18.81" font-weight="700" fill="rgb(38, 38, 38)">영상 대체본</text><text x="497.09" y="187.84" font-family="Pretendard" font-size="18.81" font-weight="700" fill="rgb(38, 38, 38)">네트워크 차단</text></g></svg>