<svg xmlns="http://www.w3.org/2000/svg" width="1600" height="900" viewBox="0 0 1600 900">
<defs><linearGradient id="wash-2026" x1="0" y1="0" x2="0.35" y2="1"><stop offset="0%" stop-color="#11241f" stop-opacity="0.95"/><stop offset="55%" stop-color="#0b1a17" stop-opacity="0.7"/><stop offset="100%" stop-color="#061210" stop-opacity="1"/></linearGradient></defs><rect x="0" y="0" width="1600" height="900" fill="#061210" /><rect x="0" y="0" width="1600" height="900" fill="url(#wash-2026)" />
<text x="110" y="300" font-family="'Noto Serif KR','Noto Serif CJK KR','Nanum Myeongjo',Georgia,serif" font-size="190" font-weight="700" fill="#4fd1a5" text-anchor="start" fill-opacity="0.26">2026</text>
<text x="112" y="360" font-family="'DejaVu Sans Mono','Liberation Mono',monospace" font-size="30" font-weight="400" fill="#4fd1a5" text-anchor="start" letter-spacing="2">유통 경로 셋</text>
<path d="M 412 500 C 520 500 520 260 636 260" fill="none" stroke="#4fd1a5" stroke-width="6.2" stroke-opacity="0.75" />
<path d="M 412 500 C 520 500 520 500 636 500" fill="none" stroke="#edb04a" stroke-width="4.5" stroke-opacity="0.75" />
<path d="M 412 500 C 520 500 520 740 636 740" fill="none" stroke="#e08744" stroke-width="3.4" stroke-opacity="0.75" />
<circle cx="320" cy="500" r="84" fill="#11241f" stroke="#33594e" stroke-width="2" />
<text x="320" y="511.33" font-family="'Noto Sans CJK KR','Noto Sans KR','Pretendard',sans-serif" font-size="34" font-weight="400" fill="#f1f6f2" text-anchor="middle">산지</text>
<circle cx="720" cy="260" r="76" fill="#11241f" stroke="#4fd1a5" stroke-width="2" />
<text x="720" y="270" font-family="'Noto Sans CJK KR','Noto Sans KR','Pretendard',sans-serif" font-size="30" font-weight="400" fill="#f1f6f2" text-anchor="middle">구독</text>
<circle cx="720" cy="500" r="76" fill="#11241f" stroke="#edb04a" stroke-width="2" />
<text x="720" y="510" font-family="'Noto Sans CJK KR','Noto Sans KR','Pretendard',sans-serif" font-size="30" font-weight="400" fill="#f1f6f2" text-anchor="middle">단건 판매</text>
<circle cx="720" cy="740" r="76" fill="#11241f" stroke="#e08744" stroke-width="2" />
<text x="720" y="750" font-family="'Noto Sans CJK KR','Noto Sans KR','Pretendard',sans-serif" font-size="30" font-weight="400" fill="#f1f6f2" text-anchor="middle">B2B 공급</text>
<rect x="830" y="247" width="200" height="26" fill="#183029" />
<rect x="830" y="247" width="104" height="26" fill="#4fd1a5" fill-opacity="0.9" />
<text x="1048" y="271" font-family="'Noto Serif KR','Noto Serif CJK KR','Nanum Myeongjo',Georgia,serif" font-size="36" font-weight="700" fill="#4fd1a5" text-anchor="start">52%</text>
<rect x="830" y="487" width="200" height="26" fill="#183029" />
<rect x="830" y="487" width="62" height="26" fill="#edb04a" fill-opacity="0.9" />
<text x="1048" y="511" font-family="'Noto Serif KR','Noto Serif CJK KR','Nanum Myeongjo',Georgia,serif" font-size="36" font-weight="700" fill="#edb04a" text-anchor="start">31%</text>
<rect x="830" y="727" width="200" height="26" fill="#183029" />
<rect x="830" y="727" width="34" height="26" fill="#e08744" fill-opacity="0.9" />
<text x="1048" y="751" font-family="'Noto Serif KR','Noto Serif CJK KR','Nanum Myeongjo',Georgia,serif" font-size="36" font-weight="700" fill="#e08744" text-anchor="start">17%</text>
<text x="780" y="120" font-family="'Noto Sans CJK KR','Noto Sans KR','Pretendard',sans-serif" font-size="30" font-weight="400" fill="#bed1c7" text-anchor="middle">구독이 매출의 절반을 넘었다</text>
<defs><linearGradient id="scrim-2026" x1="0" y1="1" x2="0.75" y2="0.15"><stop offset="0%" stop-color="#061210" stop-opacity="0.96"/><stop offset="48%" stop-color="#061210" stop-opacity="0.55"/><stop offset="100%" stop-color="#061210" stop-opacity="0"/></linearGradient></defs><rect x="0" y="0" width="1600" height="900" fill="url(#scrim-2026)" />
</svg>
